<svg width="100%" height="100%" viewBox="0 0 450 450" fill="none" xmlns="http://www.w3.org/2000/svg">
  <rect width="450" height="450" rx="42" fill="#FEF3C7" />
  <ellipse cx="232" cy="206" rx="126" ry="137" fill="#F87171" opacity="0.18" />
  <path d="M170 120C170 104.745 182.745 92 198 92H252C267.255 92 280 104.745 280 120V288C280 303.255 267.255 316 252 316H198C182.745 316 170 303.255 170 288V120Z" fill="#F97316" />
  <path d="M190 140C190 134.486 194.486 130 200 130H250C255.514 130 260 134.486 260 140V264C260 269.514 255.514 274 250 274H200C194.486 274 190 269.514 190 264V140Z" fill="#F9A8D4" />
  <circle cx="240" cy="198" r="24" fill="#FFF7CD" />
  <circle cx="210" cy="250" r="18" fill="#FFF7CD" />
  <circle cx="270" cy="250" r="14" fill="#FFF7CD" />
</svg>
