<svg width="100%" height="100%" viewBox="0 0 450 450" fill="none" xmlns="http://www.w3.org/2000/svg">
  <rect width="450" height="450" rx="42" fill="#FFF7ED" />
  <path d="M120 140C120 108.386 145.386 83 177 83H273C304.614 83 330 108.386 330 140V286C330 317.614 304.614 343 273 343H177C145.386 343 120 317.614 120 286V140Z" fill="#F97316" />
  <path d="M178 130C178 119.059 187.059 110 198 110H252C262.941 110 272 119.059 272 130V224C272 234.941 262.941 244 252 244H198C187.059 244 178 234.941 178 224V130Z" fill="#FDE68A" />
  <circle cx="215" cy="275" r="18" fill="#FDE68A" />
  <circle cx="245" cy="255" r="14" fill="#FDE68A" />
  <path d="M190 180C184 164 187 143 204 132C221 121 244 126 248 142C252 158 236 188 214 196C192 204 192 196 190 180Z" fill="#FFF7ED" />
</svg>
